<svg width="25" height="24" viewBox="0 0 25 24" fill="none" xmlns="http://www.w3.org/2000/svg">
<path d="M2.36816 11.7967C2.36816 11.4673 2.65441 11.2003 3.00752 11.2003H19.6031L13.0447 5.18418C12.7929 4.95322 12.7895 4.57559 13.0371 4.34073C13.2847 4.10586 13.6895 4.10268 13.9412 4.33364L21.6074 11.3658C21.612 11.37 21.6166 11.3742 21.6211 11.3785C21.7294 11.4813 21.7897 11.6114 21.8021 11.7445C21.8057 11.7829 21.8053 11.8215 21.801 11.8597C21.7864 11.9891 21.7265 12.115 21.6211 12.215C21.6141 12.2216 21.6071 12.228 21.6001 12.2343L13.9412 19.2599C13.6895 19.4908 13.2847 19.4876 13.0371 19.2527C12.7895 19.0179 12.7929 18.6402 13.0447 18.4093L19.6032 12.3931H3.00752C2.65441 12.3931 2.36816 12.1261 2.36816 11.7967Z" fill="white" fill-opacity="0.75"/>
</svg>
