<svg width="25" height="28" viewBox="0 0 25 28" fill="none" xmlns="http://www.w3.org/2000/svg">
<path d="M2 24.6867C7.01415 20.3912 8.51292 13.3246 10.6768 9.55977M10.6768 9.55977C14.4973 2.91283 20.6464 5.24574 19.8629 9.55977C19.0795 13.8738 18.2177 14.8736 18.2177 20.7429C18.2177 23.583 19.0844 25.2048 20.1455 25.7701C22.5425 27.0468 24.3586 22.7391 23.4901 20.1659C23.2116 19.3408 22.6874 18.5125 21.7628 17.8175C18.5852 15.4291 3.09685 16.2067 3.09685 16.2067M10.6768 9.55977C10.6768 9.55977 13.5561 3.65343 10.6768 2.32034C10.2231 2.11026 9.74361 2.01422 9.25771 2.00148C6.26953 1.92312 6.29047 5.93629 8.73777 7.65271V7.65271" stroke="black" stroke-width="2.5" stroke-linecap="round" stroke-linejoin="round"/>
</svg>
