<?xml version="1.0" encoding="utf-8"?>
<!-- Generator: Adobe Illustrator 27.7.0, SVG Export Plug-In . SVG Version: 6.00 Build 0)  -->
<svg version="1.1" id="Layer_1" xmlns="http://www.w3.org/2000/svg" xmlns:xlink="http://www.w3.org/1999/xlink" x="0px" y="0px"
	 viewBox="0 0 1620 474" style="enable-background:new 0 0 1620 474;" xml:space="preserve">
<style type="text/css">
	.st0{fill:#FFFFFF;}
</style>
<g>
	<path class="st0" d="M24,386.5c-5.6,0-11.3-0.6-17-2c-4.6-1.1-7.4-5.7-6.3-10.3c1.1-4.6,5.7-7.4,10.3-6.3
		c67,16.1,140-99.2,142.5-103.3c0.1-0.2,0.3-0.5,0.5-0.7c0,0,0,0,0.1-0.1l101.8-136.7c-29.2,2.2-74,10-87.6,31.1
		c-5.5,8.5-5.4,18.8,0.3,31.4c1.9,4.3,0,9.3-4.2,11.2c-4.3,1.9-9.3,0-11.2-4.2c-8.1-18-7.8-34.1,0.9-47.6
		c10.9-16.9,34.6-28.7,70.4-35c24.7-4.4,46.4-4.6,48.8-4.6c0.2,0,0.4,0,0.5,0c0.8,0,1.6,0.2,2.4,0.4c0,0,0,0,0,0c0,0,0,0,0,0
		c0.3,0.1,0.5,0.2,0.8,0.3c0.9,0.4,1.6,0.9,2.3,1.6c0.7,0.7,1.3,1.5,1.7,2.3c0.3,0.5,0.5,1.1,0.6,1.7c0,0,0,0,0,0
		c0.2,0.8,0.3,1.6,0.3,2.5c0,0.4-0.1,0.8-0.1,1.2l-25.1,150.8c0,0.2-0.1,0.4-0.1,0.7c-2.2,10.5-5.5,40.1,4.9,53
		c8.2,10.2,18,12.9,30.1,8.2c13.7-5.3,26.5-21.7,30.4-27.7c0,0,0,0,0,0l65.5-105.7c0.8-1.5,1.6-2.7,2.1-3.3c0-0.1,0.1-0.1,0.1-0.2
		c0.2-0.2,0.3-0.3,0.3-0.3l0,0c0.4-0.5,0.9-0.9,1.4-1.3c1.1-0.8,2.3-1.3,3.6-1.6c1.2-0.2,2.4-0.2,3.6,0.1c0.9,0.2,1.8,0.6,2.7,1.2
		c0.8,0.5,1.5,1.2,2,1.9c0.8,1,1.3,2.2,1.5,3.5c0,0,0,0,0,0c0,0,0,0,0,0c0.2,1.2,0.2,2.5-0.1,3.7c-0.2,0.8-0.6,1.6-1,2.4l-1.5,2.4
		c-0.9,1.7-1.7,3.9-1.6,5.9c0.9,15.3,7.5,27.2,14.6,39.9c8.3,15,16.9,30.4,16.9,52.1c0,12.9-5.1,27.9-9.8,39
		c5.2-1.3,11.5-3,18.9-5.1c18.1-5.3,29.6-26.7,31.4-30.4l17.8-64.5h-26.8c-4.7,0-8.5-3.8-8.5-8.5s3.8-8.5,8.5-8.5h31.4l16.3-62.6
		c1.2-4.5,5.8-7.3,10.4-6.1c4.5,1.2,7.3,5.8,6.1,10.4l-15.2,58.4h44c4.7,0,8.5,3.8,8.5,8.5s-3.8,8.5-8.5,8.5H508l-19.1,69
		c-1,11.3,0.9,28.9,8.2,32.2c9.3,4.3,15,3.7,21.6-2.5c6.7-6.3,45.1-63.4,67.7-97.9l4-6.1l62.3,28.9l-2.8,7.4
		c-0.1,0.2-7.2,19.2-10.2,31.5c-4.2,17.5-4.5,33.2-0.7,38.2c0.5,0.7,1.2,1.3,3.1,1.3c0,0,0,0,0.1,0c5.8,0,14.3-13.2,18.2-22.6
		c0.8-3,4.1-14.4,11.9-25.9c12.2-18,29.4-27.5,49.7-27.5c12.7,0,19.1,2.5,31.3,9.8c0.4,0.2,0.9,0.4,1.3,0.7
		c18.9,9.1,24.6,7.4,44.5,1.7c1.5-0.4,3-0.9,4.6-1.3c4.5-1.3,9.2,1.3,10.5,5.8c1.3,4.5-1.3,9.2-5.8,10.5c-1.6,0.5-3.1,0.9-4.5,1.3
		c-15.1,4.4-24.9,7.2-38.5,4c1.5,9.9,1.3,22-2.1,33.8c-5.1,18-20.6,30.1-33.4,35.5c-9.1,3.8-28.8,5.5-43.9-2.9
		c-9.2-5.1-15.2-13.7-19.2-21.8c-5.9,8.3-14.3,16.1-24.8,15.9c-6.7-0.1-12.3-2.8-16.2-7.9c-10-12.9-5.8-38.5-2.4-52.6
		c2-8.3,5.6-19,8.1-26.1l-34.8-16.1c-15.4,23.4-57.1,86.3-66.3,94.9c-11.7,10.9-24.9,12.7-40.4,5.5c-9.6-4.4-14.3-14.1-16.5-23.9
		c-6.9,7.5-16.1,14.9-27.6,18.3c-23.4,6.8-36.1,9-37.4,9.2c0,0-0.1,0-0.1,0c-4.4,0.7-40.1,6.2-61-5.5c-12.3-6.9-19.1-19.9-22.7-30.9
		c-6.8,7.4-16.3,15.7-27.1,19.9c-19.1,7.4-36.6,2.6-49.5-13.4c-12.7-15.9-11.7-42.3-9.9-57h-72.7C152.1,298.1,90.4,386.5,24,386.5z
		 M677.2,326.4c1.6,7.2,6.9,22.2,16.9,27.8c10.3,5.7,24.2,4.1,29.1,2.1c8.7-3.7,20.1-12.3,23.6-24.5c5-17.4,0.8-33.2-1.4-36.7
		c-0.2-0.1-0.3-0.2-0.5-0.3c-10.7-6.5-14.2-7.7-22.9-7.7C690.8,287.1,679.5,318.8,677.2,326.4z M337.8,310.9
		c1.4,9.1,6.4,26.9,17.8,33.3c11.8,6.6,34.2,5.5,45.9,4.1c4.1-8.2,13.5-28.3,13.5-43.2c0-17.3-7.2-30.2-14.8-43.8
		c-5.1-9.1-10.3-18.4-13.5-29.3L337.8,310.9z M177.8,260.6H241l18.2-109.3L177.8,260.6z"/>
</g>
<path class="st0" d="M992.4,364c3.5,5.1-0.2,12-6.4,12c-2.5,0-4.9-1.3-6.4-3.4l-82.1-120.3l-83.3,120.3c-1.5,2.1-3.8,3.4-6.4,3.4
	c-6.3,0-10-7.1-6.4-12.2l87.2-125.1l-79.3-117c-3.5-5.2,0.2-12.3,6.5-12.3c2.6,0,5,1.3,6.5,3.4l76.4,112.5l77.7-112.7
	c1.4-2.1,3.8-3.3,6.3-3.3c6.2,0,9.8,6.9,6.3,12l-81.4,117.3L992.4,364z"/>
<path class="st0" d="M1080.4,105.3c16.4,0,30.7,2.8,42.8,8.5c12.4,5.4,22,13.2,28.7,23.4c6.7,10,10.1,21.7,10.1,35.1
	c0,15.9-4.5,29.4-13.3,40.4c-8.9,10.7-21,18.3-36.6,22.6c-0.1,0-0.2,0.1-0.2,0.2c0,0.1,0.1,0.2,0.2,0.3
	c18.8,4.3,33.6,12.8,44.6,25.4c11.3,12.4,17,27.5,17,45.2c0,14.5-4,27.3-12.1,38.4c-7.8,11-18.7,19.7-32.7,25.9
	c-13.7,6.2-29.9,9.3-48.5,9.3c-18.3,0-34.6-3.1-48.9-9.3c-14-6.2-24.9-14.8-32.7-25.9c-7.8-11-11.7-23.8-11.7-38.4
	c0-17.8,5.7-32.9,17-45.2c11.3-12.6,26.3-21.1,45-25.4c0.1,0,0.2-0.1,0.2-0.3c0-0.1-0.1-0.2-0.2-0.2c-15.8-4.3-28.3-11.8-37.4-22.6
	c-8.9-11-13.3-24.5-13.3-40.4c0-13.5,3.4-25.2,10.1-35.1c7-10.2,16.6-18,28.7-23.4C1049.6,108.1,1064,105.3,1080.4,105.3z
	 M1080.4,120.3c-19.7,0-35.6,4.8-47.7,14.5c-11.8,9.4-17.8,22.4-17.8,38.8s5.9,29.8,17.8,40c12.1,10,28,14.9,47.7,14.9
	c19.7,0,35.4-5,47.3-14.9c12.1-10.2,18.2-23.6,18.2-40s-5.9-29.4-17.8-38.8C1116.2,125.1,1100.3,120.3,1080.4,120.3z M1080.4,365.5
	c15.3,0,28.8-2.6,40.4-7.7c11.6-5.1,20.5-12.1,26.7-21c6.5-9.2,9.7-19.7,9.7-31.5c0-12.4-3.2-23.2-9.7-32.3
	c-6.2-9.2-15.1-16.3-26.7-21.4c-11.6-5.4-25.1-8.1-40.4-8.1s-28.8,2.7-40.4,8.1c-11.6,5.1-20.6,12.3-27.1,21.4
	c-6.5,9.2-9.7,19.9-9.7,32.3c0,11.9,3.2,22.4,9.7,31.5c6.5,8.9,15.5,15.9,27.1,21S1065.1,365.5,1080.4,365.5z"/>
<path class="st0" d="M1273.1,380c-30.4,0-54.1-11.7-71.1-35.1c-17-23.7-25.5-57.8-25.5-102.2s8.5-78.4,25.5-101.8
	c17-23.7,40.7-35.6,71.1-35.6c30.4,0,54.1,11.9,71.1,35.6c17,23.4,25.5,57.4,25.5,101.8s-8.5,78.5-25.5,102.2
	C1327.3,368.3,1303.6,380,1273.1,380z M1273.1,365.9c17.2,0,31.8-4.7,43.6-14.1s20.9-23.3,27.1-41.6c6.2-18.3,9.3-40.8,9.3-67.5
	s-3.1-49.2-9.3-67.5c-6.2-18.3-15.2-32.2-27.1-41.6c-11.8-9.4-26.4-14.1-43.6-14.1s-31.9,4.7-44,14.1c-11.8,9.4-20.9,23.3-27.1,41.6
	c-6.2,18.3-9.3,40.8-9.3,67.5c0,26.4,3.1,48.9,9.3,67.5c6.2,18.3,15.2,32.2,27.1,41.6C1241.2,361.2,1255.9,365.9,1273.1,365.9z"/>
<path class="st0" d="M1461.6,105.3c21.6,0,39.6,5.7,54.1,17c14.5,11,25.4,26.8,32.7,47.3c7.3,20.2,10.9,44.6,10.9,73.1
	c0,30.4-4,55.9-12.1,76.4c-8.1,20.2-19.4,35.4-33.9,45.7c-14.5,10.2-31.6,15.4-51.3,15.4c-22.1,0-40.9-5.1-56.6-15.4
	c-13.4-9.2-23-21.2-28.8-35.9c-1.5-3.7,0.3-7.9,3.8-9.7c4.7-2.5,10.5,0.1,12.6,5c4.5,10.7,11.3,19.8,20.5,27.3
	c12.1,9.4,28.4,14.1,48.9,14.1c15.6,0,28.7-3.4,39.2-10.1c10.8-7,19.2-16.4,25.4-28.3c6.2-12.1,10.6-25.9,13.3-41.2
	c3-15.4,4.4-31.4,4.4-48.1c0-6.5-0.4-12.8-1.2-19c-0.5-6-1.2-11.6-1.9-16.8c0-0.3-0.3-0.6-0.7-0.6c-0.3,0-0.7,0.3-0.7,0.6
	c-1.2,15.9-5.9,29-14.1,39.4c-8.1,10.2-18,17.9-29.9,23c-11.8,5.1-24.1,7.7-36.8,7.7c-17.5,0-32.7-3.4-45.7-10.1
	c-12.9-6.7-23-16.3-30.3-28.7c-7-12.4-10.5-26.9-10.5-43.6c0-17.2,3.5-32.1,10.5-44.4c7.3-12.7,17.5-22.5,30.7-29.5
	C1427.6,108.8,1443.3,105.3,1461.6,105.3z M1462,120.3c-22.6,0-40.4,6.3-53.3,19c-12.7,12.7-19,29.8-19,51.3
	c0,20.2,6.5,36.4,19.4,48.5c12.9,12.1,30.2,18.2,51.7,18.2c14,0,26.4-3.1,37.2-9.3c10.8-6.2,19.3-14.5,25.5-25
	c6.2-10.8,9.3-22.8,9.3-36c0-12.4-3.2-23.6-9.7-33.5c-6.2-10.2-14.7-18.3-25.5-24.2C1487.1,123.2,1475.2,120.3,1462,120.3z"/>
</svg>
