<svg width="2974" height="668" viewBox="0 0 2974 668" fill="none" xmlns="http://www.w3.org/2000/svg">
<path d="M36 493.282C79.4037 455.686 106.06 404.74 126.929 356.547M126.929 356.547C143.979 317.174 157.167 279.638 172.47 252.717M126.929 356.547C178.166 356.195 245.685 357.735 294.075 366.244M126.929 356.547C84.5098 356.838 53.2513 358.425 53.2513 358.425M172.47 252.717C232.56 147.01 329.273 184.111 316.95 252.717C308.165 301.629 298.754 323.751 294.075 366.244M172.47 252.717C172.47 252.717 217.755 158.788 172.47 137.588C165.384 134.27 157.899 132.741 150.312 132.521C102.94 131.149 101.245 196.7 131.812 223.513M294.075 366.244C292.19 383.355 291.073 403.769 291.073 430.565C291.073 521.974 346.912 534.031 370.923 488.03C371.944 486.073 372.797 484.034 373.455 481.927C377.561 468.789 390.192 416.996 346.832 384.042C336.381 376.099 317.462 370.357 294.075 366.244Z" stroke="#212121" stroke-width="50" stroke-linecap="square"/>
<path d="M576.337 535.19C547.887 535.19 521.903 529.69 498.384 518.689C474.865 507.688 456.278 492.136 442.622 472.031L484.728 435.615C493.073 451.168 505.022 463.686 520.575 473.169C536.507 482.273 555.474 486.825 577.475 486.825C594.924 486.825 608.77 483.79 619.012 477.721C629.254 471.652 634.375 463.117 634.375 452.116C634.375 444.909 631.909 438.65 626.978 433.339C622.426 427.649 613.512 423.287 600.235 420.252L540.49 407.734C510.143 401.665 488.521 391.992 475.624 378.715C462.727 365.059 456.278 347.799 456.278 326.936C456.278 311.383 460.83 296.969 469.934 283.692C479.038 270.415 492.315 259.794 509.764 251.828C527.593 243.483 548.835 239.31 573.492 239.31C601.942 239.31 626.219 244.431 646.324 254.673C666.429 264.536 681.792 278.761 692.413 297.348L650.307 332.626C643.1 317.453 632.478 306.262 618.443 299.055C604.408 291.468 589.803 287.675 574.63 287.675C562.491 287.675 552.06 289.192 543.335 292.227C534.61 295.262 527.972 299.434 523.42 304.745C518.868 310.056 516.592 316.315 516.592 323.522C516.592 331.109 519.437 337.747 525.127 343.437C530.817 349.127 541.059 353.489 555.853 356.524L620.719 370.18C648.031 375.491 667.187 384.595 678.188 397.492C689.568 410.01 695.258 425.373 695.258 443.581C695.258 461.789 690.516 477.911 681.033 491.946C671.55 505.602 657.894 516.223 640.065 523.81C622.236 531.397 600.994 535.19 576.337 535.19ZM852.471 161.357V444.15C852.471 458.185 856.075 468.427 863.282 474.876C870.869 481.325 880.921 484.549 893.439 484.549C903.681 484.549 912.595 483.032 920.182 479.997C927.769 476.583 934.786 472.031 941.235 466.341L954.891 510.723C946.166 518.31 935.355 524.379 922.458 528.931C909.94 533.104 895.905 535.19 880.352 535.19C864.041 535.19 849.057 532.535 835.401 527.224C821.745 521.913 811.124 513.378 803.537 501.619C795.95 489.48 791.967 473.738 791.588 454.392V178.427L852.471 161.357ZM950.339 245V292.796H736.964V245H950.339ZM1010.56 529.5V245H1062.33L1068.02 296.21C1075.61 277.623 1086.8 263.587 1101.6 254.104C1116.77 244.241 1135.36 239.31 1157.36 239.31C1163.05 239.31 1168.74 239.879 1174.43 241.017C1180.12 241.776 1184.86 243.103 1188.65 245L1180.12 298.486C1175.94 296.969 1171.2 295.831 1165.89 295.072C1160.96 293.934 1154.13 293.365 1145.41 293.365C1133.65 293.365 1122.08 296.589 1110.7 303.038C1099.32 309.107 1089.84 318.401 1082.25 330.919C1075.04 343.437 1071.44 359.369 1071.44 378.715V529.5H1010.56ZM1362.41 239.31C1390.1 239.31 1414.56 245.19 1435.81 256.949C1457.05 268.708 1473.55 285.778 1485.31 308.159C1497.45 330.16 1503.52 356.524 1503.52 387.25C1503.52 417.976 1497.45 444.529 1485.31 466.91C1473.55 488.911 1457.05 505.792 1435.81 517.551C1414.56 529.31 1390.1 535.19 1362.41 535.19C1334.71 535.19 1310.25 529.31 1289.01 517.551C1267.76 505.792 1251.07 488.911 1238.93 466.91C1226.79 444.529 1220.73 417.976 1220.73 387.25C1220.73 356.524 1226.79 330.16 1238.93 308.159C1251.07 285.778 1267.76 268.708 1289.01 256.949C1310.25 245.19 1334.71 239.31 1362.41 239.31ZM1362.41 287.106C1345.34 287.106 1330.73 291.089 1318.59 299.055C1306.83 306.642 1297.73 317.832 1291.28 332.626C1284.83 347.42 1281.61 365.628 1281.61 387.25C1281.61 408.493 1284.83 426.701 1291.28 441.874C1297.73 456.668 1306.83 468.048 1318.59 476.014C1330.73 483.601 1345.34 487.394 1362.41 487.394C1379.48 487.394 1393.89 483.601 1405.65 476.014C1417.41 468.048 1426.51 456.668 1432.96 441.874C1439.41 426.701 1442.64 408.493 1442.64 387.25C1442.64 365.628 1439.41 347.42 1432.96 332.626C1426.51 317.832 1417.41 306.642 1405.65 299.055C1393.89 291.089 1379.48 287.106 1362.41 287.106ZM1905.58 529.5H1788.93L1718.38 409.441L1650.1 529.5H1539.14L1666.6 340.592L1546.54 153.96H1662.05L1726.34 268.898L1791.21 153.96H1897.61L1777.55 337.747L1905.58 529.5ZM2078.27 149.408C2106.72 149.408 2131.38 153.581 2152.24 161.926C2173.11 170.271 2189.23 182.22 2200.61 197.773C2212.37 212.946 2218.25 231.154 2218.25 252.397C2218.25 272.502 2213.32 289.761 2203.45 304.176C2193.59 318.591 2178.99 329.591 2159.64 337.178V337.747C2182.4 345.334 2200.04 356.524 2212.56 371.318C2225.08 385.733 2231.34 404.32 2231.34 427.08C2231.34 449.081 2225.08 468.238 2212.56 484.549C2200.42 500.481 2182.97 512.999 2160.21 522.103C2137.45 530.828 2110.14 535.19 2078.27 535.19C2046.79 535.19 2019.67 530.828 1996.91 522.103C1974.15 512.999 1956.51 500.481 1943.99 484.549C1931.85 468.238 1925.78 449.081 1925.78 427.08C1925.78 404.32 1932.04 385.733 1944.56 371.318C1957.08 356.524 1974.72 345.334 1997.48 337.747V337.178C1978.51 329.971 1963.91 319.16 1953.66 304.745C1943.42 289.951 1938.3 272.502 1938.3 252.397C1938.3 231.154 1943.99 212.946 1955.37 197.773C1967.13 182.22 1983.63 170.271 2004.87 161.926C2026.12 153.581 2050.58 149.408 2078.27 149.408ZM2078.84 220.533C2063.67 220.533 2051.53 224.326 2042.43 231.913C2033.32 239.5 2028.77 250.121 2028.77 263.777C2028.77 277.054 2033.32 287.675 2042.43 295.641C2051.53 303.228 2063.67 307.021 2078.84 307.021C2094.02 307.021 2105.97 303.228 2114.69 295.641C2123.79 287.675 2128.35 277.054 2128.35 263.777C2128.35 250.121 2123.79 239.5 2114.69 231.913C2105.97 224.326 2094.02 220.533 2078.84 220.533ZM2078.84 464.065C2090.98 464.065 2101.22 462.358 2109.57 458.944C2118.29 455.151 2124.93 449.65 2129.48 442.443C2134.04 435.236 2136.31 426.89 2136.31 417.407C2136.31 407.544 2134.04 399.199 2129.48 392.371C2124.93 385.164 2118.29 379.853 2109.57 376.439C2100.85 372.646 2090.6 370.749 2078.84 370.749C2067.08 370.749 2056.65 372.646 2047.55 376.439C2038.82 379.853 2032.19 385.164 2027.63 392.371C2023.08 399.199 2020.81 407.544 2020.81 417.407C2020.81 426.89 2023.08 435.236 2027.63 442.443C2032.19 449.65 2038.82 455.151 2047.55 458.944C2056.27 462.358 2066.71 464.065 2078.84 464.065ZM2440.13 535.19C2388.92 535.19 2350.04 518.879 2323.49 486.256C2297.31 453.633 2284.23 405.458 2284.23 341.73C2284.23 278.002 2297.31 229.827 2323.49 197.204C2350.04 164.581 2388.92 148.27 2440.13 148.27C2491.34 148.27 2530.03 164.581 2556.21 197.204C2582.76 229.827 2596.04 278.002 2596.04 341.73C2596.04 405.458 2582.76 453.633 2556.21 486.256C2530.03 518.879 2491.34 535.19 2440.13 535.19ZM2440.13 458.944C2454.17 458.944 2465.55 455.151 2474.27 447.564C2483 439.598 2489.26 427.08 2493.05 410.01C2497.22 392.561 2499.31 369.801 2499.31 341.73C2499.31 313.659 2497.22 291.089 2493.05 274.019C2489.26 256.57 2483 244.052 2474.27 236.465C2465.55 228.499 2454.17 224.516 2440.13 224.516C2426.48 224.516 2415.1 228.499 2405.99 236.465C2397.27 244.052 2390.82 256.57 2386.65 274.019C2382.85 291.089 2380.96 313.659 2380.96 341.73C2380.96 369.801 2382.85 392.561 2386.65 410.01C2390.82 427.08 2397.27 439.598 2405.99 447.564C2415.1 455.151 2426.48 458.944 2440.13 458.944ZM2789.81 148.27C2824.33 148.27 2853.16 155.667 2876.3 170.461C2899.82 184.876 2917.46 206.308 2929.22 234.758C2940.98 263.208 2946.86 298.486 2946.86 340.592C2946.86 386.112 2940.03 423.287 2926.37 452.116C2913.1 480.566 2894.7 501.619 2871.18 515.275C2847.66 528.552 2820.54 535.19 2789.81 535.19C2757.19 535.19 2728.74 528.741 2704.46 515.844C2680.57 502.567 2662.74 481.704 2650.98 453.254L2738.6 418.545C2741.64 431.822 2747.33 442.253 2755.67 449.84C2764.4 457.427 2776.35 461.22 2791.52 461.22C2803.28 461.22 2813.52 458.944 2822.25 454.392C2830.97 449.461 2837.99 442.443 2843.3 433.339C2848.99 424.235 2853.16 413.234 2855.82 400.337C2858.47 387.06 2859.8 371.887 2859.8 354.817C2859.8 353.3 2859.8 351.972 2859.8 350.834C2859.8 349.317 2859.8 347.61 2859.8 345.713H2858.09C2853.92 357.093 2847.09 366.387 2837.61 373.594C2828.13 380.801 2817.32 386.302 2805.18 390.095C2793.04 393.509 2780.52 395.216 2767.62 395.216C2744.1 395.216 2723.05 390.474 2704.46 380.991C2686.26 371.128 2672.03 357.472 2661.79 340.023C2651.55 322.194 2646.43 301.521 2646.43 278.002C2646.43 251.069 2652.31 228.12 2664.06 209.153C2676.2 189.807 2692.89 174.823 2714.14 164.202C2735.76 153.581 2760.98 148.27 2789.81 148.27ZM2789.81 223.378C2773.5 223.378 2760.42 227.93 2750.55 237.034C2741.07 246.138 2736.33 259.035 2736.33 275.726C2736.33 290.899 2741.26 302.848 2751.12 311.573C2760.98 319.918 2773.88 324.091 2789.81 324.091C2800.06 324.091 2809.16 322.005 2817.13 317.832C2825.47 313.659 2831.92 307.969 2836.47 300.762C2841.02 293.175 2843.3 284.261 2843.3 274.019C2843.3 263.398 2841.02 254.483 2836.47 247.276C2831.92 239.689 2825.47 233.81 2817.13 229.637C2809.16 225.464 2800.06 223.378 2789.81 223.378Z" fill="#212121"/>
</svg>
